<svg xmlns="http://www.w3.org/2000/svg" viewBox="0 0 256 256"><defs><linearGradient id="linear-gradient" x1="221.5" x2="34.5" y1="279.6" y2="-19.6" gradientTransform="matrix(1 0 0 -1 0 258)" gradientUnits="userSpaceOnUse"><stop offset="0" stop-color="#1066b1"/><stop offset="1" stop-color="#7c3b97"/></linearGradient><style>.cls-2{fill:#fff}</style></defs><g id="Layer_1"><path d="M0 0h256v256H0V0Z" style="fill:url(#linear-gradient)"/><g id="postcodes"><path d="M209.2 28.5H46.8C36.4 28.5 28 36.9 28 47.2v112.5c0 10.4 8.4 18.8 18.8 18.8h162.5c10.4 0 18.8-8.4 18.8-18.8V47.2c-.1-10.3-8.5-18.7-18.9-18.7ZM46.8 41h162.5c3.4 0 6.2 2.8 6.2 6.2v16.2c-8.6 7.2-20.8 17.2-58.8 47.4-6.6 5.2-19.6 17.9-28.7 17.7-9.1.2-22.1-12.5-28.7-17.7-38-30.2-50.3-40.2-58.8-47.4V47.2c0-3.4 2.8-6.2 6.3-6.2Zm162.4 125H46.8c-3.4 0-6.2-2.8-6.2-6.2V79.7c8.9 7.3 23 18.6 51.1 40.9 8 6.4 22.1 20.5 36.4 20.4 14.2.1 28.2-13.9 36.4-20.4 28.1-22.3 42.1-33.6 51.1-40.9v80.1c-.1 3.4-2.9 6.2-6.4 6.2ZM59.1 194.6v-1.7c.8 0 1.3-.1 1.7-.2.5-.1.9-.3 1.2-.7.2-.2.4-.5.5-.9v-.5h2.1v12.7H62v-8.8h-3ZM78 200.9c.4-.8 1.2-1.7 2.5-2.7 1.2-.8 1.9-1.4 2.2-1.8.5-.6.8-1.2.8-1.8s0-1-.4-1.3-.7-.5-1.3-.5-1.3.3-1.6.9c-.2.3-.3.8-.3 1.6h-2.4c0-1.1.2-2 .6-2.6.7-1.3 1.9-1.9 3.6-1.9s2.4.4 3.2 1.1c.8.7 1.2 1.7 1.2 3s-.3 1.8-.8 2.5c-.4.5-1 1-1.8 1.6l-1 .7c-.6.4-1.1.8-1.3 1s-.4.4-.6.7h5.6v2.2h-8.7c0-1.1 0-2 .5-2.7ZM97.6 191.8c.8-.8 1.8-1.3 3.1-1.3 1.9 0 3.3.9 4 2.6.4 1 .6 2.3.6 3.8s-.2 2.8-.6 3.9c-.8 2-2.1 2.9-4.1 2.9s-1.8-.3-2.6-.8-1.2-1.4-1.3-2.5h2.5c0 .4.2.7.5.9s.6.4 1 .4c.8 0 1.4-.5 1.7-1.4.2-.5.3-1.2.3-2.2-.2.3-.5.5-.7.7-.5.3-1 .4-1.7.4-1 0-1.9-.3-2.7-1s-1.2-1.7-1.2-3 .4-2.6 1.2-3.4Zm4.2 5.1c.6-.4.9-1 .9-1.9s-.2-1.3-.5-1.7-.8-.6-1.4-.6-.8.1-1.1.4c-.5.4-.7 1-.7 1.9s.2 1.3.5 1.7.8.6 1.4.6c.3-.1.6-.2.9-.4ZM124.4 192.8c-.4.4-.9 1-1.6 2-.7.9-1.2 1.9-1.7 2.9s-.7 1.8-1 2.9c-.3 1.1-.4 2.1-.4 2.8h-2.6c0-2.3.8-4.7 2.3-7.1.9-1.5 1.7-2.6 2.3-3.2h-6.3v-2.2h9v1.9ZM134.3 197.2h4.9v2.4h-4.9v-2.4ZM149.8 197.9c.3-.6.8-1 1.4-1.3-.6-.4-1-.9-1.2-1.3-.2-.5-.3-.9-.3-1.3 0-.9.3-1.7 1-2.4s1.7-1 3-1 2.3.3 3 1 1 1.4 1 2.4-.1.9-.3 1.3c-.2.5-.6.9-1.2 1.2.6.4 1.1.8 1.4 1.4.3.6.5 1.2.5 1.9 0 1.1-.4 2-1.2 2.7s-1.9 1.1-3.3 1.1-2.5-.4-3.2-1.1-1.1-1.7-1.1-2.7.2-1.3.5-1.9Zm2.6 3.2c.3.3.8.5 1.3.5s1-.2 1.3-.5.5-.8.5-1.5-.2-1.1-.5-1.5c-.3-.3-.8-.5-1.3-.5s-1 .2-1.3.5-.5.8-.5 1.5.2 1.2.5 1.5Zm.2-5.8c.3.3.7.4 1.2.4s.9-.1 1.2-.4.4-.7.4-1.1-.1-.9-.4-1.2-.7-.4-1.2-.4-.9.1-1.2.4c-.3.3-.4.7-.4 1.2s.1.8.4 1.1ZM176.2 192.3c.7 1.1 1 2.8 1 4.9s-.3 3.7-1 4.9-1.8 1.7-3.4 1.7-2.8-.6-3.4-1.7c-.7-1.1-1-2.8-1-4.9s.3-3.7 1-4.9c.7-1.1 1.8-1.7 3.4-1.7s2.8.5 3.4 1.7Zm-4.8 8.2c.2.8.7 1.2 1.5 1.2s1.2-.4 1.5-1.2.3-1.9.3-3.4-.1-2.7-.3-3.4-.7-1.1-1.5-1.1-1.2.4-1.5 1.1-.4 1.9-.4 3.4.1 2.6.4 3.4ZM188.1 194.6v-1.7c.8 0 1.3-.1 1.7-.2.5-.1.9-.3 1.2-.7.2-.2.4-.5.5-.9.1-.2.1-.4.1-.5h2.1v12.7h-2.6v-8.8h-3ZM61 222.2c-1 1-2.4 1.5-4.2 1.5s-3.3-.5-4.2-1.5c-1.3-1.2-2-3-2-5.3s.7-4.2 2-5.3c1-1 2.4-1.5 4.2-1.5s3.3.5 4.2 1.5c1.3 1.2 2 3 2 5.3s-.7 4.1-2 5.3Zm-1.7-1.9c.6-.8.9-1.9.9-3.4s-.3-2.6-.9-3.4-1.5-1.2-2.6-1.2-1.9.4-2.6 1.2-1 1.9-1 3.4.3 2.6 1 3.4 1.5 1.2 2.6 1.2 2-.5 2.6-1.2ZM74.1 210.4h2.7V221h6.5v2.3h-9.2v-12.9ZM96.5 223.4h-2.7v-13h2.7v13ZM115.6 210.4h2.8l-4.4 13h-2.6l-4.4-13h2.9l2.8 9.8 2.9-9.8ZM138.6 212.7h-6.9v2.8h6.3v2.2h-6.3v3.3h7.2v2.3h-9.8v-13h9.5v2.4ZM150 210.4h2.8l5.1 9v-9h2.5v13h-2.7l-5.3-9.2v9.2H150v-13ZM173.3 211.8c1-1.1 2.4-1.6 4-1.6s3.7.7 4.7 2.1c.6.8.8 1.6.9 2.4h-2.7c-.2-.6-.4-1.1-.7-1.4-.5-.6-1.2-.8-2.1-.8s-1.7.4-2.3 1.2-.8 1.9-.8 3.4.3 2.5.9 3.3c.6.7 1.3 1.1 2.2 1.1s1.6-.3 2.1-.9c.3-.3.5-.8.7-1.5h2.7c-.2 1.4-.8 2.6-1.8 3.4-1 .9-2.1 1.3-3.4 1.3l-.5.8c.2 0 .3-.1.4-.1h.3c.5 0 .9.1 1.1.3s.4.6.4 1-.2 1-.7 1.3c-.4.3-1 .5-1.7.5s-.7-.1-1.1-.2c-.2-.1-.5-.2-.8-.3l.3-.8c.3.1.6.2.7.2.3.1.5.1.7.1.4 0 .6-.1.8-.2.2-.1.2-.3.2-.5s-.1-.4-.3-.5-.4-.1-.5-.1h-.3c-.1 0-.2.1-.4.1l-.4-.4.8-1.3c-1.4 0-2.6-.6-3.6-1.8s-1.6-2.8-1.6-4.9.6-4 1.8-5.2ZM197.8 210.4h3.1l4.6 13h-2.9l-.9-2.7h-4.8l-.9 2.7h-2.8l4.6-13Zm-.2 8.1h3.3l-1.6-5.1-1.7 5.1Z" class="cls-2"/></g></g></svg>