<svg xmlns="http://www.w3.org/2000/svg" viewBox="0 0 256 256"><linearGradient id="a" gradientUnits="userSpaceOnUse" x1="221.467" y1="-21.579" x2="34.533" y2="277.579"><stop offset="0" stop-color="#1066b1"/><stop offset="1" stop-color="#7c3b97"/></linearGradient><path fill="url(#a)" d="M0 0h256v256H0z"/><path d="M128 28C72.9 28 28 72.9 28 128s44.9 100 100 100 100-44.9 100-100S183.1 28 128 28m58.2 135.8L151 136h60.7c-.9 9.9-3.6 19.2-7.6 27.8h-17.9zM70 92.3l35.1 27.8H44.4c.9-9.8 3.6-19.2 7.6-27.8h18zm25.7 0H120v19.2L95.7 92.3zM44.4 136H120v27.8H52c-4.1-8.6-6.7-18-7.6-27.8m91.6 8.5l24.5 19.3H136v-19.3zm0-24.5V92.3h68c4 8.6 6.7 17.9 7.6 27.8H136zm58.2-43.7H136v-32c23.6 2.3 44.3 14.3 58.2 32m-74.2-32v32H75.5l-8.1-6.4C81 55.7 99.4 46.3 120 44.3M61.9 179.8H120v31.9c-23.5-2.3-44.3-14.3-58.1-31.9m74.1 31.9v-31.9h44.6l8 6.3c-13.5 14.2-32 23.6-52.6 25.6" fill="#fff"/></svg>